<svg height="320" width="320" shapeRendering="crispEdges" viewBox="0 0 25 25" style="width: 320px; height: 320px;"><path fill="#fff" d="M0,0 h25v25H0z"></path><path fill="#000" d="M0 0h7v1H0zM8 0h4v1H8zM14 0h1v1H14zM18,0 h7v1H18zM0 1h1v1H0zM6 1h1v1H6zM8 1h1v1H8zM11 1h1v1H11zM13 1h2v1H13zM16 1h1v1H16zM18 1h1v1H18zM24,1 h1v1H24zM0 2h1v1H0zM2 2h3v1H2zM6 2h1v1H6zM9 2h1v1H9zM13 2h1v1H13zM16 2h1v1H16zM18 2h1v1H18zM20 2h3v1H20zM24,2 h1v1H24zM0 3h1v1H0zM2 3h3v1H2zM6 3h1v1H6zM11 3h1v1H11zM13 3h2v1H13zM18 3h1v1H18zM20 3h3v1H20zM24,3 h1v1H24zM0 4h1v1H0zM2 4h3v1H2zM6 4h1v1H6zM8 4h1v1H8zM11 4h2v1H11zM14 4h1v1H14zM18 4h1v1H18zM20 4h3v1H20zM24,4 h1v1H24zM0 5h1v1H0zM6 5h1v1H6zM8 5h3v1H8zM12 5h1v1H12zM14 5h1v1H14zM18 5h1v1H18zM24,5 h1v1H24zM0 6h7v1H0zM8 6h1v1H8zM10 6h1v1H10zM12 6h1v1H12zM14 6h1v1H14zM16 6h1v1H16zM18,6 h7v1H18zM8 7h2v1H8zM14 7h3v1H14zM0 8h3v1H0zM5 8h2v1H5zM8 8h2v1H8zM11 8h2v1H11zM14 8h1v1H14zM16 8h5v1H16zM23,8 h2v1H23zM2 9h2v1H2zM5 9h1v1H5zM7 9h1v1H7zM11 9h3v1H11zM15 9h1v1H15zM18 9h2v1H18zM21 9h1v1H21zM23,9 h2v1H23zM0 10h4v1H0zM6 10h1v1H6zM9 10h4v1H9zM15 10h3v1H15zM19 10h4v1H19zM24,10 h1v1H24zM1 11h2v1H1zM4 11h1v1H4zM8 11h1v1H8zM10 11h1v1H10zM14 11h1v1H14zM16 11h2v1H16zM19 11h1v1H19zM21 11h1v1H21zM0 12h1v1H0zM3 12h2v1H3zM6 12h1v1H6zM8 12h4v1H8zM14 12h1v1H14zM16 12h1v1H16zM18 12h1v1H18zM24,12 h1v1H24zM2 13h1v1H2zM5 13h1v1H5zM10 13h3v1H10zM14 13h3v1H14zM18 13h2v1H18zM23,13 h2v1H23zM0 14h2v1H0zM4 14h3v1H4zM10 14h2v1H10zM13 14h1v1H13zM15 14h2v1H15zM21 14h2v1H21zM24,14 h1v1H24zM7 15h2v1H7zM12 15h1v1H12zM15 15h1v1H15zM18 15h4v1H18zM0 16h3v1H0zM5 16h3v1H5zM12 16h1v1H12zM15 16h6v1H15zM23 16h1v1H23zM8 17h2v1H8zM11 17h2v1H11zM14 17h3v1H14zM20 17h1v1H20zM24,17 h1v1H24zM0 18h7v1H0zM9 18h1v1H9zM11 18h2v1H11zM16 18h1v1H16zM18 18h1v1H18zM20 18h1v1H20zM24,18 h1v1H24zM0 19h1v1H0zM6 19h1v1H6zM8 19h2v1H8zM12 19h1v1H12zM14 19h3v1H14zM20 19h1v1H20zM0 20h1v1H0zM2 20h3v1H2zM6 20h1v1H6zM9 20h3v1H9zM15 20h6v1H15zM0 21h1v1H0zM2 21h3v1H2zM6 21h1v1H6zM9 21h1v1H9zM11 21h1v1H11zM13 21h1v1H13zM15 21h1v1H15zM17 21h1v1H17zM20 21h1v1H20zM22 21h2v1H22zM0 22h1v1H0zM2 22h3v1H2zM6 22h1v1H6zM8 22h1v1H8zM10 22h3v1H10zM16 22h1v1H16zM19 22h3v1H19zM23,22 h2v1H23zM0 23h1v1H0zM6 23h1v1H6zM8 23h5v1H8zM15 23h2v1H15zM18 23h3v1H18zM0 24h7v1H0zM8 24h1v1H8zM12 24h1v1H12zM16 24h1v1H16zM18 24h1v1H18zM21 24h1v1H21zM24,24 h1v1H24z"></path></svg>